<svg id="Ebene_1" data-name="Ebene 1" xmlns="http://www.w3.org/2000/svg" viewBox="0 0 311.57 376.04"><defs><style>.cls-1,.cls-2{fill:#fff;}.cls-2{font-size:31.16px;font-family:ProximaNova-Semibold, Proxima Nova;font-weight:600;letter-spacing:0.4em;}.cls-3{letter-spacing:0.38em;}</style></defs><path class="cls-1" d="M695,468.48a157.07,157.07,0,0,0,45.8-111.06,9.77,9.77,0,1,0-19.53,0,137.67,137.67,0,0,1-40.15,97.33c-25.87,26.15-60,40.55-96.11,40.55s-70.24-14.4-96.11-40.55a138.06,138.06,0,0,1,0-194.67c25.7-26,59.55-40.36,95.4-40.54a14.57,14.57,0,0,1-.17,29.14,9.24,9.24,0,0,0-1,.06,105,105,0,0,0-71.69,31.54,107.43,107.43,0,0,0,0,151.42,104.86,104.86,0,0,0,150,0A107.07,107.07,0,0,0,692.65,356,33.84,33.84,0,1,0,625,356a7.7,7.7,0,0,0,0,.83,7.37,7.37,0,0,0,0,.82,39.34,39.34,0,1,1-39.33-39,9.77,9.77,0,0,0,0-19.53c-32.46,0-58.87,26.27-58.87,58.54s26.41,58.54,58.87,58.54a58.76,58.76,0,0,0,58.86-58.54c0-.28,0-.55,0-.82s0-.55,0-.83a14.31,14.31,0,1,1,28.62,0,87.68,87.68,0,0,1-25.57,62,85.34,85.34,0,0,1-122.28,0,87.89,87.89,0,0,1,0-124,85.5,85.5,0,0,1,61.14-25.81,9.64,9.64,0,0,0,2.59-.36,34.13,34.13,0,0,0-2.94-67.79A9.28,9.28,0,0,0,585,200h-1.16c-40.94.31-79.55,16.73-108.83,46.34a157.57,157.57,0,0,0,0,222.13c29.56,29.89,68.62,46.35,110,46.35S665.43,498.37,695,468.48Z" transform="translate(-429.21 -200)"/><text class="cls-2" transform="translate(26.2 369.5)">CONNEC<tspan class="cls-3" x="203.95" y="0">T</tspan><tspan x="233.61" y="0">O</tspan></text></svg>