<svg id="light" enable-background="new 0 0 24 24" height="512" viewBox="0 0 24 24" width="512" xmlns="http://www.w3.org/2000/svg"><g><path d="m22.5 6h-21c-.827 0-1.5-.673-1.5-1.5v-3c0-.827.673-1.5 1.5-1.5h21c.827 0 1.5.673 1.5 1.5v3c0 .827-.673 1.5-1.5 1.5zm-21-5c-.275 0-.5.225-.5.5v3c0 .275.225.5.5.5h21c.275 0 .5-.225.5-.5v-3c0-.275-.225-.5-.5-.5z"/></g><g><path d="m22.5 24h-21c-.827 0-1.5-.673-1.5-1.5v-13c0-.827.673-1.5 1.5-1.5h21c.827 0 1.5.673 1.5 1.5v13c0 .827-.673 1.5-1.5 1.5zm-21-15c-.275 0-.5.225-.5.5v13c0 .275.225.5.5.5h21c.275 0 .5-.225.5-.5v-13c0-.275-.225-.5-.5-.5z"/></g><g><path d="m19.503 21h-6.006c-.827 0-1.5-.673-1.5-1.5v-7c0-.827.673-1.5 1.5-1.5h6.006c.827 0 1.5.673 1.5 1.5v7c0 .827-.673 1.5-1.5 1.5zm-6.006-9c-.275 0-.5.225-.5.5v7c0 .275.225.5.5.5h6.006c.275 0 .5-.225.5-.5v-7c0-.275-.225-.5-.5-.5z"/></g><g><path d="m9.497 13h-6c-.276 0-.5-.224-.5-.5s.224-.5.5-.5h6c.276 0 .5.224.5.5s-.224.5-.5.5z"/></g><g><path d="m9.497 16h-6c-.276 0-.5-.224-.5-.5s.224-.5.5-.5h6c.276 0 .5.224.5.5s-.224.5-.5.5z"/></g><g><path d="m9.497 19h-6c-.276 0-.5-.224-.5-.5s.224-.5.5-.5h6c.276 0 .5.224.5.5s-.224.5-.5.5z"/></g></svg>